<svg xmlns="http://www.w3.org/2000/svg" viewBox="0 0 760 300" width="760" height="300" role="img" aria-label="Organelle contamination: 16 kb at 30000x, two orders of magnitude above the library.">
<title>Organelle contamination</title>
<style>.ink{fill:#aeaeae;font:13px system-ui,sans-serif}.sm{fill:#aeaeae;font:11px system-ui,sans-serif;opacity:.75}.hd{fill:#aeaeae;font:600 14px system-ui,sans-serif}.rule{stroke:#485266;stroke-width:1;fill:none}@media (prefers-color-scheme: light){.ink,.sm,.hd{fill:#3b4252}.rule{stroke:#c4ccda}}</style>
<text class="hd" x="66" y="18">Organelle contamination</text>
<line class="rule" x1="66.0" y1="30" x2="66.0" y2="254" opacity="0.35"/>
<text class="sm" x="66.0" y="270" text-anchor="middle">1</text>
<line class="rule" x1="201.2" y1="30" x2="201.2" y2="254" opacity="0.35"/>
<text class="sm" x="201.2" y="270" text-anchor="middle">10</text>
<line class="rule" x1="336.4" y1="30" x2="336.4" y2="254" opacity="0.35"/>
<text class="sm" x="336.4" y="270" text-anchor="middle">100</text>
<line class="rule" x1="471.6" y1="30" x2="471.6" y2="254" opacity="0.35"/>
<text class="sm" x="471.6" y="270" text-anchor="middle">1,000</text>
<line class="rule" x1="606.8" y1="30" x2="606.8" y2="254" opacity="0.35"/>
<text class="sm" x="606.8" y="270" text-anchor="middle">10,000</text>
<line class="rule" x1="742.0" y1="30" x2="742.0" y2="254" opacity="0.35"/>
<text class="sm" x="742.0" y="270" text-anchor="middle">100,000</text>
<line class="rule" x1="66" y1="254.0" x2="742" y2="254.0" opacity="0.25"/>
<text class="sm" x="58" y="258.0" text-anchor="end">10<tspan baseline-shift="super" font-size="8">0</tspan></text>
<line class="rule" x1="66" y1="222.0" x2="742" y2="222.0" opacity="0.25"/>
<text class="sm" x="58" y="226.0" text-anchor="end">10<tspan baseline-shift="super" font-size="8">1</tspan></text>
<line class="rule" x1="66" y1="190.0" x2="742" y2="190.0" opacity="0.25"/>
<text class="sm" x="58" y="194.0" text-anchor="end">10<tspan baseline-shift="super" font-size="8">2</tspan></text>
<line class="rule" x1="66" y1="158.0" x2="742" y2="158.0" opacity="0.25"/>
<text class="sm" x="58" y="162.0" text-anchor="end">10<tspan baseline-shift="super" font-size="8">3</tspan></text>
<line class="rule" x1="66" y1="126.0" x2="742" y2="126.0" opacity="0.25"/>
<text class="sm" x="58" y="130.0" text-anchor="end">10<tspan baseline-shift="super" font-size="8">4</tspan></text>
<line class="rule" x1="66" y1="94.0" x2="742" y2="94.0" opacity="0.25"/>
<text class="sm" x="58" y="98.0" text-anchor="end">10<tspan baseline-shift="super" font-size="8">5</tspan></text>
<line class="rule" x1="66" y1="62.0" x2="742" y2="62.0" opacity="0.25"/>
<text class="sm" x="58" y="66.0" text-anchor="end">10<tspan baseline-shift="super" font-size="8">6</tspan></text>
<line class="rule" x1="66" y1="30.0" x2="742" y2="30.0" opacity="0.25"/>
<text class="sm" x="58" y="34.0" text-anchor="end">10<tspan baseline-shift="super" font-size="8">7</tspan></text>
<path d="M66.0,254.0 L106.7,254.0 L106.7,254.0 L130.5,254.0 L130.5,254.0 L147.4,254.0 L147.4,254.0 L160.5,254.0 L160.5,254.0 L171.2,254.0 L171.2,254.0 L180.3,254.0 L180.3,254.0 L188.1,254.0 L188.1,254.0 L195.0,254.0 L195.0,254.0 L201.2,254.0 L201.2,254.0 L206.8,254.0 L206.8,254.0 L211.9,254.0 L211.9,254.0 L216.6,254.0 L216.6,254.0 L221.0,254.0 L221.0,254.0 L225.0,254.0 L225.0,254.0 L228.8,254.0 L228.8,254.0 L232.4,254.0 L232.4,254.0 L238.9,254.0 L238.9,244.4 L244.8,244.4 L244.8,234.7 L250.1,234.7 L250.1,225.1 L255.0,225.1 L255.0,215.5 L259.5,215.5 L259.5,206.3 L263.7,206.3 L263.7,198.1 L267.6,198.1 L267.6,190.6 L271.3,190.6 L271.3,183.5 L274.8,183.5 L274.8,169.3 L279.6,169.3 L279.6,160.3 L284.0,160.3 L284.0,152.0 L288.2,152.0 L288.2,144.5 L292.1,144.5 L292.1,137.6 L295.7,137.6 L295.7,131.3 L299.1,131.3 L299.1,120.6 L303.4,120.6 L303.4,113.7 L307.4,113.7 L307.4,107.5 L311.1,107.5 L311.1,102.0 L314.6,102.0 L314.6,93.3 L318.7,93.3 L318.7,87.9 L322.6,87.9 L322.6,83.2 L326.2,83.2 L326.2,79.1 L329.6,79.1 L329.6,72.7 L333.4,72.7 L333.4,69.2 L337.0,69.2 L337.0,66.3 L340.4,66.3 L340.4,61.7 L344.1,61.7 L344.1,59.7 L347.6,59.7 L347.6,56.4 L351.4,56.4 L351.4,55.6 L354.9,55.6 L354.9,53.7 L358.6,53.7 L358.6,54.2 L362.1,54.2 L362.1,53.9 L365.8,53.9 L365.8,55.8 L369.3,55.8 L369.3,57.2 L372.8,57.2 L372.8,59.6 L376.5,59.6 L376.5,64.1 L380.0,64.1 L380.0,68.3 L383.5,68.3 L383.5,73.7 L387.1,73.7 L387.1,80.3 L390.7,80.3 L390.7,88.9 L394.1,88.9 L394.1,97.4 L397.5,97.4 L397.5,107.3 L400.9,107.3 L400.9,118.5 L404.3,118.5 L404.3,131.1 L407.7,131.1 L407.7,145.0 L411.1,145.0 L411.1,160.1 L414.6,160.1 L414.6,177.7 L418.1,177.7 L418.1,197.1 L421.5,197.1 L421.5,219.5 L425.0,219.5 L425.0,254.0 L428.4,254.0 L428.4,254.0 L431.8,254.0 L431.8,254.0 L435.3,254.0 L435.3,254.0 L438.7,254.0 L438.7,254.0 L442.1,254.0 L442.1,254.0 L445.5,254.0 L445.5,254.0 L448.9,254.0 L448.9,254.0 L452.3,254.0 L452.3,254.0 L455.7,254.0 L455.7,254.0 L459.2,254.0 L459.2,254.0 L462.5,254.0 L462.5,254.0 L465.9,254.0 L465.9,254.0 L469.3,254.0 L469.3,254.0 L472.8,254.0 L472.8,254.0 L476.2,254.0 L476.2,254.0 L479.6,254.0 L479.6,254.0 L483.0,254.0 L483.0,254.0 L486.4,254.0 L486.4,254.0 L489.8,254.0 L489.8,254.0 L493.2,254.0 L493.2,254.0 L496.6,254.0 L496.6,254.0 L500.0,254.0 L500.0,254.0 L503.4,254.0 L503.4,254.0 L506.8,254.0 L506.8,254.0 L510.1,254.0 L510.1,254.0 L513.5,254.0 L513.5,254.0 L517.0,254.0 L517.0,254.0 L520.4,254.0 L520.4,254.0 L523.7,254.0 L523.7,254.0 L527.1,254.0 L527.1,254.0 L530.5,254.0 L530.5,254.0 L533.9,254.0 L533.9,254.0 L537.3,254.0 L537.3,254.0 L540.7,254.0 L540.7,254.0 L544.1,254.0 L544.1,254.0 L547.5,254.0 L547.5,254.0 L550.8,254.0 L550.8,254.0 L554.2,254.0 L554.2,254.0 L557.6,254.0 L557.6,254.0 L561.0,254.0 L561.0,254.0 L564.4,254.0 L564.4,254.0 L567.8,254.0 L567.8,254.0 L571.2,254.0 L571.2,254.0 L574.5,254.0 L574.5,254.0 L577.9,254.0 L577.9,254.0 L581.3,254.0 L581.3,254.0 L584.7,254.0 L584.7,254.0 L588.1,254.0 L588.1,254.0 L591.5,254.0 L591.5,254.0 L594.8,254.0 L594.8,254.0 L598.2,254.0 L598.2,254.0 L601.6,254.0 L601.6,254.0 L605.0,254.0 L605.0,254.0 L608.4,254.0 L608.4,254.0 L611.8,254.0 L611.8,254.0 L615.1,254.0 L615.1,254.0 L618.5,254.0 L618.5,254.0 L621.9,254.0 L621.9,254.0 L625.3,254.0 L625.3,254.0 L628.7,254.0 L628.7,254.0 L632.1,254.0 L632.1,254.0 L635.4,254.0 L635.4,254.0 L638.8,254.0 L638.8,254.0 L642.2,254.0 L642.2,254.0 L645.6,254.0 L645.6,254.0 L649.0,254.0 L649.0,188.3 L652.4,188.3 L652.4,154.5 L655.7,154.5 L655.7,153.7 L659.1,153.7 L659.1,152.9 L662.5,152.9 L662.5,152.1 L665.9,152.1 L665.9,151.3 L669.3,151.3 L669.3,150.5 L672.6,150.5 L672.6,149.7 L676.0,149.7 L676.0,148.9 L679.4,148.9 L679.4,148.1 L682.8,148.1 L682.8,177.7 L686.2,177.7 L686.2,254.0 L66.0,254.0Z" fill="#60c0ff" opacity="0.22"/>
<path d="M66.0,254.0 L106.7,254.0 L106.7,254.0 L130.5,254.0 L130.5,254.0 L147.4,254.0 L147.4,254.0 L160.5,254.0 L160.5,254.0 L171.2,254.0 L171.2,254.0 L180.3,254.0 L180.3,254.0 L188.1,254.0 L188.1,254.0 L195.0,254.0 L195.0,254.0 L201.2,254.0 L201.2,254.0 L206.8,254.0 L206.8,254.0 L211.9,254.0 L211.9,254.0 L216.6,254.0 L216.6,254.0 L221.0,254.0 L221.0,254.0 L225.0,254.0 L225.0,254.0 L228.8,254.0 L228.8,254.0 L232.4,254.0 L232.4,254.0 L238.9,254.0 L238.9,244.4 L244.8,244.4 L244.8,234.7 L250.1,234.7 L250.1,225.1 L255.0,225.1 L255.0,215.5 L259.5,215.5 L259.5,206.3 L263.7,206.3 L263.7,198.1 L267.6,198.1 L267.6,190.6 L271.3,190.6 L271.3,183.5 L274.8,183.5 L274.8,169.3 L279.6,169.3 L279.6,160.3 L284.0,160.3 L284.0,152.0 L288.2,152.0 L288.2,144.5 L292.1,144.5 L292.1,137.6 L295.7,137.6 L295.7,131.3 L299.1,131.3 L299.1,120.6 L303.4,120.6 L303.4,113.7 L307.4,113.7 L307.4,107.5 L311.1,107.5 L311.1,102.0 L314.6,102.0 L314.6,93.3 L318.7,93.3 L318.7,87.9 L322.6,87.9 L322.6,83.2 L326.2,83.2 L326.2,79.1 L329.6,79.1 L329.6,72.7 L333.4,72.7 L333.4,69.2 L337.0,69.2 L337.0,66.3 L340.4,66.3 L340.4,61.7 L344.1,61.7 L344.1,59.7 L347.6,59.7 L347.6,56.4 L351.4,56.4 L351.4,55.6 L354.9,55.6 L354.9,53.7 L358.6,53.7 L358.6,54.2 L362.1,54.2 L362.1,53.9 L365.8,53.9 L365.8,55.8 L369.3,55.8 L369.3,57.2 L372.8,57.2 L372.8,59.6 L376.5,59.6 L376.5,64.1 L380.0,64.1 L380.0,68.3 L383.5,68.3 L383.5,73.7 L387.1,73.7 L387.1,80.3 L390.7,80.3 L390.7,88.9 L394.1,88.9 L394.1,97.4 L397.5,97.4 L397.5,107.3 L400.9,107.3 L400.9,118.5 L404.3,118.5 L404.3,131.1 L407.7,131.1 L407.7,145.0 L411.1,145.0 L411.1,160.1 L414.6,160.1 L414.6,177.7 L418.1,177.7 L418.1,197.1 L421.5,197.1 L421.5,219.5 L425.0,219.5 L425.0,254.0 L428.4,254.0 L428.4,254.0 L431.8,254.0 L431.8,254.0 L435.3,254.0 L435.3,254.0 L438.7,254.0 L438.7,254.0 L442.1,254.0 L442.1,254.0 L445.5,254.0 L445.5,254.0 L448.9,254.0 L448.9,254.0 L452.3,254.0 L452.3,254.0 L455.7,254.0 L455.7,254.0 L459.2,254.0 L459.2,254.0 L462.5,254.0 L462.5,254.0 L465.9,254.0 L465.9,254.0 L469.3,254.0 L469.3,254.0 L472.8,254.0 L472.8,254.0 L476.2,254.0 L476.2,254.0 L479.6,254.0 L479.6,254.0 L483.0,254.0 L483.0,254.0 L486.4,254.0 L486.4,254.0 L489.8,254.0 L489.8,254.0 L493.2,254.0 L493.2,254.0 L496.6,254.0 L496.6,254.0 L500.0,254.0 L500.0,254.0 L503.4,254.0 L503.4,254.0 L506.8,254.0 L506.8,254.0 L510.1,254.0 L510.1,254.0 L513.5,254.0 L513.5,254.0 L517.0,254.0 L517.0,254.0 L520.4,254.0 L520.4,254.0 L523.7,254.0 L523.7,254.0 L527.1,254.0 L527.1,254.0 L530.5,254.0 L530.5,254.0 L533.9,254.0 L533.9,254.0 L537.3,254.0 L537.3,254.0 L540.7,254.0 L540.7,254.0 L544.1,254.0 L544.1,254.0 L547.5,254.0 L547.5,254.0 L550.8,254.0 L550.8,254.0 L554.2,254.0 L554.2,254.0 L557.6,254.0 L557.6,254.0 L561.0,254.0 L561.0,254.0 L564.4,254.0 L564.4,254.0 L567.8,254.0 L567.8,254.0 L571.2,254.0 L571.2,254.0 L574.5,254.0 L574.5,254.0 L577.9,254.0 L577.9,254.0 L581.3,254.0 L581.3,254.0 L584.7,254.0 L584.7,254.0 L588.1,254.0 L588.1,254.0 L591.5,254.0 L591.5,254.0 L594.8,254.0 L594.8,254.0 L598.2,254.0 L598.2,254.0 L601.6,254.0 L601.6,254.0 L605.0,254.0 L605.0,254.0 L608.4,254.0 L608.4,254.0 L611.8,254.0 L611.8,254.0 L615.1,254.0 L615.1,254.0 L618.5,254.0 L618.5,254.0 L621.9,254.0 L621.9,254.0 L625.3,254.0 L625.3,254.0 L628.7,254.0 L628.7,254.0 L632.1,254.0 L632.1,254.0 L635.4,254.0 L635.4,254.0 L638.8,254.0 L638.8,254.0 L642.2,254.0 L642.2,254.0 L645.6,254.0 L645.6,254.0 L649.0,254.0 L649.0,188.3 L652.4,188.3 L652.4,154.5 L655.7,154.5 L655.7,153.7 L659.1,153.7 L659.1,152.9 L662.5,152.9 L662.5,152.1 L665.9,152.1 L665.9,151.3 L669.3,151.3 L669.3,150.5 L672.6,150.5 L672.6,149.7 L676.0,149.7 L676.0,148.9 L679.4,148.9 L679.4,148.1 L682.8,148.1 L682.8,177.7 L686.2,177.7" fill="none" stroke="#60c0ff" stroke-width="1.4" opacity="0.9"/>
<path d="M66.0,254.0 L106.7,254.0 L106.7,254.0 L130.5,254.0 L130.5,254.0 L147.4,254.0 L147.4,254.0 L160.5,254.0 L160.5,254.0 L171.2,254.0 L171.2,254.0 L180.3,254.0 L180.3,254.0 L188.1,254.0 L188.1,254.0 L195.0,254.0 L195.0,254.0 L201.2,254.0 L201.2,254.0 L206.8,254.0 L206.8,254.0 L211.9,254.0 L211.9,254.0 L216.6,254.0 L216.6,254.0 L221.0,254.0 L221.0,254.0 L225.0,254.0 L225.0,254.0 L228.8,254.0 L228.8,254.0 L232.4,254.0 L232.4,254.0 L238.9,254.0 L238.9,244.4 L244.8,244.4 L244.8,234.7 L250.1,234.7 L250.1,225.1 L255.0,225.1 L255.0,215.5 L259.5,215.5 L259.5,206.3 L263.7,206.3 L263.7,198.1 L267.6,198.1 L267.6,190.6 L271.3,190.6 L271.3,183.5 L274.8,183.5 L274.8,169.3 L279.6,169.3 L279.6,160.3 L284.0,160.3 L284.0,152.0 L288.2,152.0 L288.2,144.5 L292.1,144.5 L292.1,137.6 L295.7,137.6 L295.7,131.3 L299.1,131.3 L299.1,120.6 L303.4,120.6 L303.4,113.7 L307.4,113.7 L307.4,107.5 L311.1,107.5 L311.1,102.0 L314.6,102.0 L314.6,93.3 L318.7,93.3 L318.7,87.9 L322.6,87.9 L322.6,83.2 L326.2,83.2 L326.2,79.1 L329.6,79.1 L329.6,72.7 L333.4,72.7 L333.4,69.2 L337.0,69.2 L337.0,66.3 L340.4,66.3 L340.4,61.7 L344.1,61.7 L344.1,59.7 L347.6,59.7 L347.6,56.4 L351.4,56.4 L351.4,55.6 L354.9,55.6 L354.9,53.7 L358.6,53.7 L358.6,54.2 L362.1,54.2 L362.1,53.9 L365.8,53.9 L365.8,55.8 L369.3,55.8 L369.3,57.2 L372.8,57.2 L372.8,59.6 L376.5,59.6 L376.5,64.1 L380.0,64.1 L380.0,68.3 L383.5,68.3 L383.5,73.7 L387.1,73.7 L387.1,80.3 L390.7,80.3 L390.7,88.9 L394.1,88.9 L394.1,97.4 L397.5,97.4 L397.5,107.3 L400.9,107.3 L400.9,118.5 L404.3,118.5 L404.3,131.1 L407.7,131.1 L407.7,145.0 L411.1,145.0 L411.1,160.1 L414.6,160.1 L414.6,177.7 L418.1,177.7 L418.1,197.1 L421.5,197.1 L421.5,219.5 L425.0,219.5 L425.0,254.0 L428.4,254.0 L428.4,120.3 L431.8,120.3 L431.8,254.0 L435.3,254.0 L435.3,254.0 L438.7,254.0 L438.7,254.0 L442.1,254.0 L442.1,254.0 L445.5,254.0 L445.5,254.0 L448.9,254.0 L448.9,254.0 L452.3,254.0 L452.3,254.0 L455.7,254.0 L455.7,254.0 L459.2,254.0 L459.2,254.0 L462.5,254.0 L462.5,254.0 L465.9,254.0 L465.9,254.0 L469.3,254.0 L469.3,254.0 L472.8,254.0 L472.8,254.0 L476.2,254.0 L476.2,254.0 L479.6,254.0 L479.6,254.0 L483.0,254.0 L483.0,254.0 L486.4,254.0 L486.4,254.0 L489.8,254.0 L489.8,254.0 L493.2,254.0 L493.2,254.0 L496.6,254.0 L496.6,254.0 L500.0,254.0 L500.0,254.0 L503.4,254.0 L503.4,254.0 L506.8,254.0 L506.8,254.0 L510.1,254.0 L510.1,254.0 L513.5,254.0 L513.5,254.0 L517.0,254.0 L517.0,254.0 L520.4,254.0 L520.4,254.0 L523.7,254.0 L523.7,254.0 L527.1,254.0 L527.1,254.0 L530.5,254.0 L530.5,254.0 L533.9,254.0 L533.9,254.0 L537.3,254.0 L537.3,254.0 L540.7,254.0 L540.7,254.0 L544.1,254.0 L544.1,254.0 L547.5,254.0 L547.5,254.0 L550.8,254.0 L550.8,254.0 L554.2,254.0 L554.2,254.0 L557.6,254.0 L557.6,254.0 L561.0,254.0 L561.0,254.0 L564.4,254.0 L564.4,254.0 L567.8,254.0 L567.8,254.0 L571.2,254.0 L571.2,254.0 L574.5,254.0 L574.5,254.0 L577.9,254.0 L577.9,254.0 L581.3,254.0 L581.3,254.0 L584.7,254.0 L584.7,254.0 L588.1,254.0 L588.1,254.0 L591.5,254.0 L591.5,254.0 L594.8,254.0 L594.8,254.0 L598.2,254.0 L598.2,254.0 L601.6,254.0 L601.6,254.0 L605.0,254.0 L605.0,254.0 L608.4,254.0 L608.4,254.0 L611.8,254.0 L611.8,254.0 L615.1,254.0 L615.1,254.0 L618.5,254.0 L618.5,254.0 L621.9,254.0 L621.9,254.0 L625.3,254.0 L625.3,254.0 L628.7,254.0 L628.7,254.0 L632.1,254.0 L632.1,254.0 L635.4,254.0 L635.4,254.0 L638.8,254.0 L638.8,254.0 L642.2,254.0 L642.2,254.0 L645.6,254.0 L645.6,254.0 L649.0,254.0 L649.0,254.0 L652.4,254.0 L652.4,254.0 L655.7,254.0 L655.7,254.0 L659.1,254.0 L659.1,254.0 L662.5,254.0 L662.5,254.0 L665.9,254.0 L665.9,254.0 L669.3,254.0 L669.3,254.0 L672.6,254.0 L672.6,254.0 L676.0,254.0 L676.0,254.0 L679.4,254.0 L679.4,254.0 L682.8,254.0 L682.8,254.0 L686.2,254.0" fill="none" stroke="#3cb371" stroke-width="1.8"/>
<line x1="431.1" y1="30" x2="431.1" y2="254" stroke="#ffd166" stroke-width="1.4" stroke-dasharray="5 4"/>
<text class="sm" x="437.1" y="42" text-anchor="start" fill="#ffd166">cap = 502</text>
<text class="sm" x="66" y="292"><tspan fill="#60c0ff">— before</tspan><tspan fill="#3cb371" dx="20">— after capping</tspan></text>
<text class="sm" x="742" y="292" text-anchor="end">depth →</text>
<text class="sm" transform="translate(14,142.0) rotate(-90)" text-anchor="middle">covered positions</text>
</svg>
